<?xml version="1.0" standalone="no"?>
<!DOCTYPE svg PUBLIC "-//W3C//DTD SVG 20010904//EN"
 "http://www.w3.org/TR/2001/REC-SVG-20010904/DTD/svg10.dtd">
<svg version="1.0" xmlns="http://www.w3.org/2000/svg"
 width="512.000000pt" height="512.000000pt" viewBox="0 0 512.000000 512.000000"
 preserveAspectRatio="xMidYMid meet">
<metadata>
Created by potrace 1.14, written by Peter Selinger 2001-2017
</metadata>
<g transform="translate(0.000000,512.000000) scale(0.100000,-0.100000)"
fill="#000000" stroke="none">
<path d="M252 4378 c-73 -12 -164 -72 -201 -131 -54 -88 -51 9 -48 -1702 l2
-1580 22 -47 c36 -79 123 -152 208 -175 11 -3 1055 -6 2319 -7 2163 -1 2302 0
2356 16 70 22 135 77 175 149 l30 54 0 1605 0 1605 -23 43 c-35 66 -87 117
-150 148 l-57 28 -2296 1 c-1263 0 -2315 -3 -2337 -7z"/>
</g>
</svg>
