<?xml version="1.0" standalone="no"?>
<!DOCTYPE svg PUBLIC "-//W3C//DTD SVG 20010904//EN"
 "http://www.w3.org/TR/2001/REC-SVG-20010904/DTD/svg10.dtd">
<svg version="1.0" xmlns="http://www.w3.org/2000/svg"
 width="512.000000pt" height="512.000000pt" viewBox="0 0 512.000000 512.000000"
 preserveAspectRatio="xMidYMid meet">
<metadata>
Created by potrace 1.14, written by Peter Selinger 2001-2017
</metadata>
<g transform="translate(0.000000,512.000000) scale(0.100000,-0.100000)"
fill="#000000" stroke="none">
<path d="M515 4903 c-55 -7 -138 -34 -195 -63 -133 -67 -248 -202 -292 -343
l-23 -72 0 -1865 0 -1865 23 -72 c57 -183 209 -329 408 -390 56 -17 149 -18
2124 -18 1977 0 2068 1 2125 18 194 60 335 192 403 378 l27 74 3 1842 c3 2024
5 1920 -57 2048 -69 140 -194 249 -346 302 l-80 28 -2045 1 c-1125 1 -2058 -1
-2075 -3z m4283 -2620 l-3 -1558 -22 -40 c-28 -54 -100 -119 -149 -136 -58
-21 -4070 -21 -4128 0 -49 17 -121 82 -149 136 l-22 40 -3 1558 -2 1557 2240
0 2240 0 -2 -1557z"/>
<path d="M1387 2976 c-47 -17 -71 -38 -91 -81 -19 -39 -20 -89 -3 -127 7 -15
146 -162 310 -327 163 -165 297 -303 297 -308 0 -4 -137 -145 -304 -313 -329
-329 -328 -328 -311 -417 9 -49 69 -109 118 -118 90 -17 82 -24 485 378 205
205 380 384 388 399 18 35 18 102 -1 142 -8 17 -180 196 -383 398 -310 309
-373 368 -407 377 -49 13 -51 13 -98 -3z"/>
<path d="M2655 1586 c-67 -29 -105 -106 -91 -181 9 -47 59 -102 104 -115 25
-8 209 -10 554 -8 504 3 517 4 544 24 53 39 69 71 69 134 0 63 -16 95 -69 134
-27 21 -40 21 -554 23 -423 2 -533 0 -557 -11z"/>
</g>
</svg>
